<svg width="100" height="100" viewBox="0 0 100 100" fill="none" xmlns="http://www.w3.org/2000/svg">
<path d="M98.1141 45.5445L54.4531 1.88594C51.9402 -0.628516 47.8621 -0.628516 45.3461 1.88594L36.2797 10.9523L47.7809 22.4535C50.4535 21.5504 53.5184 22.1562 55.6488 24.2867C57.7894 26.4309 58.391 29.5219 57.466 32.2031L68.55 43.2875C71.2316 42.3637 74.3258 42.9613 76.4676 45.1066C79.4609 48.0988 79.4609 52.9484 76.4676 55.9426C73.4734 58.9371 68.6238 58.9371 65.6281 55.9426C63.3766 53.6887 62.8203 50.382 63.9602 47.6082L53.6234 37.2715L53.6223 64.4734C54.3716 64.8439 55.056 65.3333 55.6488 65.9227C58.6422 68.9148 58.6422 73.7648 55.6488 76.7613C52.6547 79.7543 47.8027 79.7543 44.8129 76.7613C41.8195 73.7648 41.8195 68.9152 44.8129 65.923C45.5302 65.2053 46.3827 64.637 47.3211 64.2508V36.7953C46.3814 36.4117 45.5284 35.843 44.8129 35.123C42.5449 32.8582 41.9996 29.5305 43.1617 26.7457L31.8242 15.407L1.88672 45.3426C-0.628906 47.8594 -0.628906 51.9379 1.88672 54.4527L45.5484 98.1121C48.0621 100.627 52.1394 100.627 54.6562 98.1121L98.1137 54.6555C100.629 52.1398 100.629 48.059 98.1141 45.5445Z" fill="#DE4C36"/>
</svg>
