<svg width="100" height="100" viewBox="0 0 100 100" fill="none" xmlns="http://www.w3.org/2000/svg">
<g clip-path="url(#clip0_158_1417)">
<path d="M0 49.9999C0 36.1979 4.88281 24.414 14.6485 14.6484C24.414 4.88281 36.1979 0 50 0C63.802 0 75.5859 4.88281 85.3516 14.6484C95.1171 24.414 100 36.1979 100 49.9999C100 63.802 95.1172 75.5859 85.3516 85.3515C75.586 95.1171 63.8021 100 50 100C36.1979 100 24.414 95.1172 14.6485 85.3515C4.88281 75.586 0 63.8019 0 49.9999ZM5.46874 49.9999C5.46874 62.2396 9.83072 72.7213 18.5547 81.4453C27.2786 90.1692 37.7604 94.5313 50 94.5313C62.2396 94.5313 72.7214 90.1693 81.4453 81.4453C90.1693 72.7214 94.5313 62.2396 94.5313 49.9999C94.5313 37.7604 90.1694 27.2786 81.4453 18.5547C72.7214 9.83072 62.2395 5.46874 50 5.46874C37.7604 5.46874 27.2787 9.83072 18.5547 18.5547C9.83072 27.2786 5.46874 37.7604 5.46874 49.9999ZM19.5313 60.7421C19.2709 60.4817 19.2709 60.2213 19.5313 59.9609C20.0521 59.44 20.7032 59.2447 21.4844 59.3749C22.2656 59.5051 22.7213 59.6354 22.8515 59.7656C23.763 60.1562 24.7722 61.035 25.8788 62.4023C26.9855 63.7695 27.8645 64.7135 28.5156 65.2343C31.6406 67.8385 34.8306 68.0338 38.0858 65.8202C38.3462 64.9088 38.7694 64.1275 39.3553 63.4764C39.9411 62.8254 40.4946 62.3697 41.0155 62.1092C41.5364 61.8488 42.4479 61.4582 43.75 60.9373C39.453 60.5467 35.97 59.798 33.3007 58.6912C30.6314 57.5844 28.5155 56.1847 26.953 54.492C24.8697 52.1483 23.6001 49.0884 23.1444 45.3124C22.6885 41.5363 22.9815 38.0858 24.0233 34.9608C24.8046 33.0077 25.9113 31.25 27.3435 29.6874C26.3019 26.4322 26.4972 22.7212 27.9295 18.5546C32.0961 18.815 35.8722 20.2473 39.2576 22.8514C45.768 21.1587 52.5388 21.0936 59.5699 22.6561C60.4814 22.0051 61.8812 21.1913 63.7691 20.2147C65.6571 19.2381 68.0335 18.6847 70.8981 18.5545C71.4189 19.9868 71.777 21.6795 71.9723 23.6326C72.1676 25.5857 72.07 27.4086 71.6794 29.1013C74.6741 32.2263 76.2366 36.393 76.3668 41.6013C76.3668 45.768 75.6508 49.2185 74.2185 51.9529C72.7862 54.6872 70.2471 56.9659 66.6013 58.7887C64.1273 59.9607 60.8721 60.6767 56.8357 60.9371C58.6587 61.8486 59.9933 62.7927 60.8396 63.7692C61.6861 64.7458 62.2394 66.2757 62.4999 68.359V74.5115L62.6951 80.4685C63.0858 81.1196 63.5416 81.6729 64.0624 82.1288C64.5833 82.5845 65.039 82.91 65.4296 83.1053C65.8201 83.3006 65.9505 83.5937 65.8201 83.9843C65.6899 84.3749 65.1691 84.5702 64.2577 84.5702C62.0441 84.5702 60.2864 83.789 58.9843 82.2264C58.5937 81.5753 58.3984 80.7942 58.3984 79.8826V70.5076C58.3984 69.466 58.138 68.7172 57.6171 68.2615C57.0963 67.8057 56.5755 67.5128 56.0546 67.3825V79.6872C56.0546 81.9008 56.315 83.333 56.8359 83.9841C57.3567 84.6351 57.6822 85.2863 57.8125 85.9372C57.9427 86.0674 57.845 86.165 57.5195 86.2301C57.1941 86.2951 56.6407 86.1976 55.8593 85.9372C54.1666 85.5466 52.9947 84.6676 52.3437 83.3004C51.6927 81.9333 51.3671 80.4684 51.3671 78.9059V66.7968H48.8281V78.9062C48.8281 80.4687 48.5025 81.9662 47.8514 83.3984C46.9401 85.2214 45.2472 86.1978 42.7734 86.328C42.3828 86.1978 42.1875 86.0676 42.1875 85.9375C42.3177 85.8072 42.7083 85.1563 43.3593 83.9844C43.4895 83.724 43.6523 83.2031 43.8477 82.4219C44.0431 81.6406 44.1407 80.7292 44.1407 79.6875V67.3827C43.6198 67.5129 43.1315 67.8059 42.6758 68.2617C42.2201 68.7175 41.9921 69.4662 41.9921 70.5078V79.8828C41.9921 80.7942 41.7968 81.5755 41.4062 82.2266C40.2343 83.7891 38.4765 84.5704 36.1329 84.5704C35.2214 84.5704 34.7006 84.3751 34.5704 83.9845C34.4401 83.7241 34.4727 83.4962 34.6681 83.3008C34.8635 83.1055 35.1564 82.8776 35.547 82.6172C35.9377 82.3568 36.1981 82.1614 36.3283 82.0313C36.8491 81.6406 37.2396 81.1198 37.5002 80.4688C37.8908 79.9479 37.9884 78.5808 37.7931 76.3672C37.5978 74.1537 37.5652 72.7214 37.6954 72.0703C34.3099 73.2422 30.8594 72.6562 27.3437 70.3125C26.3021 69.2709 25.2604 67.7734 24.2187 65.8203C23.4375 64.388 21.875 62.6952 19.5313 60.7421Z" fill="#27313F"/>
</g>
<defs>
<clipPath id="clip0_158_1417">
<rect width="100" height="100" fill="white"/>
</clipPath>
</defs>
</svg>
