<svg width="100" height="100" viewBox="0 0 100 100" fill="none" xmlns="http://www.w3.org/2000/svg">
<g clip-path="url(#clip0_158_1419)">
<path d="M73.8094 19.0476H78.5713C79.9047 19.0476 80.9523 20.0952 80.9523 21.4286C80.9523 22.7619 79.9047 23.8095 78.5713 23.8095H73.8094C72.4761 23.8095 71.4285 22.7619 71.4285 21.4286C71.4285 20.0952 72.4761 19.0476 73.8094 19.0476Z" fill="#56B3B4"/>
<path d="M2.38095 95.2381H26.1905C27.5238 95.2381 28.5714 96.2857 28.5714 97.6191C28.5714 98.9524 27.5238 100 26.1905 100H2.38095C1.04762 100 0 98.9524 0 97.6191C0 96.2857 1.04762 95.2381 2.38095 95.2381Z" fill="#EA5E5E"/>
<path d="M59.5238 57.1429H73.8095C75.1428 57.1429 76.1904 58.1905 76.1904 59.5238C76.1904 60.8571 75.1428 61.9048 73.8095 61.9048H59.5238C58.1904 61.9048 57.1428 60.8571 57.1428 59.5238C57.1428 58.1905 58.1904 57.1429 59.5238 57.1429Z" fill="#BF85BF"/>
<path d="M30.9525 57.1429H50.0001C51.3334 57.1429 52.3811 58.1905 52.3811 59.5238C52.3811 60.8571 51.3334 61.9048 50.0001 61.9048H30.9525C29.6192 61.9048 28.5715 60.8571 28.5715 59.5238C28.5715 58.1905 29.6192 57.1429 30.9525 57.1429Z" fill="#EA5E5E"/>
<path d="M2.38095 57.1429H21.4286C22.7619 57.1429 23.8095 58.1905 23.8095 59.5238C23.8095 60.8571 22.7619 61.9048 21.4286 61.9048H2.38095C1.04762 61.9048 0 60.8571 0 59.5238C0 58.1905 1.04762 57.1429 2.38095 57.1429Z" fill="#56B3B4"/>
<path d="M2.38095 76.1905H26.1905C27.5238 76.1905 28.5714 77.2381 28.5714 78.5714C28.5714 79.9048 27.5238 80.9524 26.1905 80.9524H2.38095C1.04762 80.9524 0 79.9048 0 78.5714C0 77.2381 1.04762 76.1905 2.38095 76.1905Z" fill="#BF85BF"/>
<path d="M2.38095 38.0952H26.1905C27.5238 38.0952 28.5714 39.1429 28.5714 40.4762C28.5714 41.8095 27.5238 42.8571 26.1905 42.8571H2.38095C1.04762 42.8571 0 41.8095 0 40.4762C0 39.1429 1.04762 38.0952 2.38095 38.0952Z" fill="#BF85BF"/>
<path d="M26.1905 9.52381H73.8096C75.1429 9.52381 76.1905 10.5714 76.1905 11.9048C76.1905 13.2381 75.1429 14.2857 73.8096 14.2857H26.1905C24.8572 14.2857 23.8096 13.2381 23.8096 11.9048C23.8096 10.5714 24.8572 9.52381 26.1905 9.52381Z" fill="#F7BA3E"/>
<path d="M2.38095 9.52381H16.6667C18 9.52381 19.0476 10.5714 19.0476 11.9048C19.0476 13.2381 18 14.2857 16.6667 14.2857H2.38095C1.04762 14.2857 0 13.2381 0 11.9048C0 10.5714 1.04762 9.52381 2.38095 9.52381Z" fill="#EA5E5E"/>
<path d="M21.4286 85.7143H26.1905C27.5238 85.7143 28.5714 86.7619 28.5714 88.0952C28.5714 89.4286 27.5238 90.4762 26.1905 90.4762H21.4286C20.0952 90.4762 19.0476 89.4286 19.0476 88.0952C19.0476 86.7619 20.0952 85.7143 21.4286 85.7143Z" fill="#F7BA3E"/>
<path d="M21.4286 28.5714H26.1905C27.5238 28.5714 28.5714 29.619 28.5714 30.9524C28.5714 32.2857 27.5238 33.3333 26.1905 33.3333H21.4286C20.0952 33.3333 19.0476 32.2857 19.0476 30.9524C19.0476 29.619 20.0952 28.5714 21.4286 28.5714Z" fill="#56B3B4"/>
<path d="M2.38095 85.7143H11.9048C13.2381 85.7143 14.2857 86.7619 14.2857 88.0952C14.2857 89.4286 13.2381 90.4762 11.9048 90.4762H2.38095C1.04762 90.4762 0 89.4286 0 88.0952C0 86.7619 1.04762 85.7143 2.38095 85.7143Z" fill="#56B3B4"/>
<path d="M2.38095 28.5714H11.9048C13.2381 28.5714 14.2857 29.619 14.2857 30.9524C14.2857 32.2857 13.2381 33.3333 11.9048 33.3333H2.38095C1.04762 33.3333 0 32.2857 0 30.9524C0 29.619 1.04762 28.5714 2.38095 28.5714Z" fill="#F7BA3E"/>
<path opacity="0.5" d="M64.2857 85.7143H69.0476C70.381 85.7143 71.4286 86.7619 71.4286 88.0952C71.4286 89.4286 70.381 90.4762 69.0476 90.4762H64.2857C62.9524 90.4762 61.9048 89.4286 61.9048 88.0952C61.9048 86.7619 62.9524 85.7143 64.2857 85.7143Z" fill="#E2E8F0"/>
<path opacity="0.5" d="M35.7142 85.7143H54.7618C56.0952 85.7143 57.1428 86.7619 57.1428 88.0952C57.1428 89.4286 56.0952 90.4762 54.7618 90.4762H35.7142C34.3809 90.4762 33.3333 89.4286 33.3333 88.0952C33.3333 86.7619 34.3809 85.7143 35.7142 85.7143Z" fill="#E2E8F0"/>
<path opacity="0.5" d="M78.5714 85.7143H97.619C98.9523 85.7143 100 86.7619 100 88.0952C100 89.4286 98.9523 90.4762 97.619 90.4762H78.5714C77.238 90.4762 76.1904 89.4286 76.1904 88.0952C76.1904 86.7619 77.238 85.7143 78.5714 85.7143Z" fill="#E2E8F0"/>
<path d="M40.4762 47.619H78.5714C79.9047 47.619 80.9524 48.6667 80.9524 50C80.9524 51.3333 79.9047 52.381 78.5714 52.381H40.4762C39.1428 52.381 38.0952 51.3333 38.0952 50C38.0952 48.6667 39.1428 47.619 40.4762 47.619Z" fill="#56B3B4"/>
<path d="M16.6666 47.619H30.9523C32.2856 47.619 33.3333 48.6667 33.3333 50C33.3333 51.3333 32.2856 52.381 30.9523 52.381H16.6666C15.3333 52.381 14.2856 51.3333 14.2856 50C14.2856 48.6667 15.3333 47.619 16.6666 47.619Z" fill="#F7BA3E"/>
<path d="M2.38095 47.619H7.14286C8.47619 47.619 9.52381 48.6667 9.52381 50C9.52381 51.3333 8.47619 52.381 7.14286 52.381H2.38095C1.04762 52.381 0 51.3333 0 50C0 48.6667 1.04762 47.619 2.38095 47.619Z" fill="#EA5E5E"/>
<path d="M45.2381 19.0476H64.2857C65.6191 19.0476 66.6667 20.0952 66.6667 21.4286C66.6667 22.7619 65.6191 23.8095 64.2857 23.8095H45.2381C43.9048 23.8095 42.8572 22.7619 42.8572 21.4286C42.8572 20.0952 43.9048 19.0476 45.2381 19.0476Z" fill="#BF85BF"/>
<path d="M2.38095 19.0476H35.7143C37.0476 19.0476 38.0952 20.0952 38.0952 21.4286C38.0952 22.7619 37.0476 23.8095 35.7143 23.8095H2.38095C1.04762 23.8095 0 22.7619 0 21.4286C0 20.0952 1.04762 19.0476 2.38095 19.0476Z" fill="#56B3B4"/>
<path d="M16.6666 66.6667H59.5237C60.8571 66.6667 61.9047 67.7143 61.9047 69.0476C61.9047 70.3809 60.8571 71.4286 59.5237 71.4286H16.6666C15.3333 71.4286 14.2856 70.3809 14.2856 69.0476C14.2856 67.7143 15.3333 66.6667 16.6666 66.6667Z" fill="#F7BA3E"/>
<path d="M2.38095 66.6667H7.14286C8.47619 66.6667 9.52381 67.7143 9.52381 69.0476C9.52381 70.3809 8.47619 71.4286 7.14286 71.4286H2.38095C1.04762 71.4286 0 70.3809 0 69.0476C0 67.7143 1.04762 66.6667 2.38095 66.6667Z" fill="#BF85BF"/>
<path d="M59.5238 28.5714H83.3333C84.6666 28.5714 85.7143 29.619 85.7143 30.9524C85.7143 32.2857 84.6666 33.3333 83.3333 33.3333H59.5238C58.1904 33.3333 57.1428 32.2857 57.1428 30.9524C57.1428 29.619 58.1904 28.5714 59.5238 28.5714Z" fill="#EA5E5E"/>
<path d="M59.5238 38.0952H83.3333C84.6666 38.0952 85.7143 39.1429 85.7143 40.4762C85.7143 41.8095 84.6666 42.8571 83.3333 42.8571H59.5238C58.1904 42.8571 57.1428 41.8095 57.1428 40.4762C57.1428 39.1429 58.1904 38.0952 59.5238 38.0952Z" fill="#F7BA3E"/>
<path d="M2.38095 0H59.5238C60.8571 0 61.9048 1.04762 61.9048 2.38095C61.9048 3.71429 60.8571 4.7619 59.5238 4.7619H2.38095C1.04762 4.7619 0 3.71429 0 2.38095C0 1.04762 1.04762 0 2.38095 0Z" fill="#56B3B4"/>
<path opacity="0.5" d="M69.0477 -3.8147e-05H97.6191C98.9525 -3.8147e-05 100 1.04758 100 2.38091C100 3.71425 98.9525 4.76187 97.6191 4.76187H69.0477C67.7144 4.76187 66.6667 3.71425 66.6667 2.38091C66.6667 1.04758 67.7144 -3.8147e-05 69.0477 -3.8147e-05Z" fill="#E2E8F0"/>
<path opacity="0.5" d="M69.0477 66.6667H78.5715C79.9048 66.6667 80.9525 67.7143 80.9525 69.0476C80.9525 70.3809 79.9048 71.4286 78.5715 71.4286H69.0477C67.7144 71.4286 66.6667 70.3809 66.6667 69.0476C66.6667 67.7143 67.7144 66.6667 69.0477 66.6667Z" fill="#E2E8F0"/>
<path opacity="0.5" d="M88.0953 66.6667H97.6191C98.9525 66.6667 100 67.7143 100 69.0476C100 70.3809 98.9525 71.4286 97.6191 71.4286H88.0953C86.762 71.4286 85.7144 70.3809 85.7144 69.0476C85.7144 67.7143 86.762 66.6667 88.0953 66.6667Z" fill="#E2E8F0"/>
<path opacity="0.5" d="M83.3333 57.1429H97.6191C98.9524 57.1429 100 58.1905 100 59.5238C100 60.8571 98.9524 61.9048 97.6191 61.9048H83.3333C82 61.9048 80.9524 60.8571 80.9524 59.5238C80.9524 58.1905 82 57.1429 83.3333 57.1429Z" fill="#E2E8F0"/>
<path opacity="0.5" d="M83.3333 9.52381H97.6191C98.9524 9.52381 100 10.5714 100 11.9048C100 13.2381 98.9524 14.2857 97.6191 14.2857H83.3333C82 14.2857 80.9524 13.2381 80.9524 11.9048C80.9524 10.5714 82 9.52381 83.3333 9.52381Z" fill="#E2E8F0"/>
<path opacity="0.5" d="M88.0953 47.619H97.6191C98.9525 47.619 100 48.6667 100 50C100 51.3333 98.9525 52.381 97.6191 52.381H88.0953C86.762 52.381 85.7144 51.3333 85.7144 50C85.7144 48.6667 86.762 47.619 88.0953 47.619Z" fill="#E2E8F0"/>
<path opacity="0.5" d="M88.0953 19.0476H97.6191C98.9525 19.0476 100 20.0952 100 21.4286C100 22.7619 98.9525 23.8095 97.6191 23.8095H88.0953C86.762 23.8095 85.7144 22.7619 85.7144 21.4286C85.7144 20.0952 86.762 19.0476 88.0953 19.0476Z" fill="#E2E8F0"/>
<path opacity="0.5" d="M92.857 28.5714H97.6189C98.9523 28.5714 99.9999 29.619 99.9999 30.9524C99.9999 32.2857 98.9523 33.3333 97.6189 33.3333H92.857C91.5237 33.3333 90.4761 32.2857 90.4761 30.9524C90.4761 29.619 91.5237 28.5714 92.857 28.5714Z" fill="#E2E8F0"/>
<path opacity="0.5" d="M92.857 38.0952H97.6189C98.9523 38.0952 99.9999 39.1429 99.9999 40.4762C99.9999 41.8095 98.9523 42.8571 97.6189 42.8571H92.857C91.5237 42.8571 90.4761 41.8095 90.4761 40.4762C90.4761 39.1429 91.5237 38.0952 92.857 38.0952Z" fill="#E2E8F0"/>
<path opacity="0.5" d="M54.7618 76.1905H97.619C98.9523 76.1905 99.9999 77.2381 99.9999 78.5714C99.9999 79.9048 98.9523 80.9524 97.619 80.9524H54.7618C53.4285 80.9524 52.3809 79.9048 52.3809 78.5714C52.3809 77.2381 53.4285 76.1905 54.7618 76.1905Z" fill="#E2E8F0"/>
<path opacity="0.5" d="M35.7142 76.1905H45.238C46.5713 76.1905 47.619 77.2381 47.619 78.5714C47.619 79.9048 46.5713 80.9524 45.238 80.9524H35.7142C34.3809 80.9524 33.3333 79.9048 33.3333 78.5714C33.3333 77.2381 34.3809 76.1905 35.7142 76.1905Z" fill="#E2E8F0"/>
<path opacity="0.5" d="M73.8094 95.2381H97.6189C98.9523 95.2381 99.9999 96.2857 99.9999 97.6191C99.9999 98.9524 98.9523 100 97.6189 100H73.8094C72.4761 100 71.4285 98.9524 71.4285 97.6191C71.4285 96.2857 72.4761 95.2381 73.8094 95.2381Z" fill="#E2E8F0"/>
<path opacity="0.5" d="M35.7142 95.2381H64.2856C65.619 95.2381 66.6666 96.2857 66.6666 97.6191C66.6666 98.9524 65.619 100 64.2856 100H35.7142C34.3809 100 33.3333 98.9524 33.3333 97.6191C33.3333 96.2857 34.3809 95.2381 35.7142 95.2381Z" fill="#E2E8F0"/>
<path opacity="0.5" d="M35.7142 28.5714H49.9999C51.3333 28.5714 52.3809 29.619 52.3809 30.9524C52.3809 32.2857 51.3333 33.3333 49.9999 33.3333H35.7142C34.3809 33.3333 33.3333 32.2857 33.3333 30.9524C33.3333 29.619 34.3809 28.5714 35.7142 28.5714Z" fill="#E2E8F0"/>
<path opacity="0.5" d="M35.7142 38.0952H49.9999C51.3333 38.0952 52.3809 39.1429 52.3809 40.4762C52.3809 41.8095 51.3333 42.8571 49.9999 42.8571H35.7142C34.3809 42.8571 33.3333 41.8095 33.3333 40.4762C33.3333 39.1429 34.3809 38.0952 35.7142 38.0952Z" fill="#E2E8F0"/>
</g>
<defs>
<clipPath id="clip0_158_1419">
<rect width="100" height="100" fill="white"/>
</clipPath>
</defs>
</svg>
