<svg width="16" height="16" viewBox="0 0 16 16" fill="none" xmlns="http://www.w3.org/2000/svg">
<path d="M14.1871 12.2827C13.9552 12.8184 13.6808 13.3115 13.3627 13.7648C12.9293 14.3829 12.5743 14.8107 12.3008 15.0483C11.8768 15.4382 11.4225 15.6379 10.936 15.6493C10.5867 15.6493 10.1656 15.5499 9.67528 15.3483C9.1834 15.1476 8.73136 15.0483 8.31804 15.0483C7.88455 15.0483 7.41965 15.1476 6.92237 15.3483C6.42433 15.5499 6.02312 15.6549 5.71637 15.6654C5.24986 15.6852 4.78485 15.4798 4.3207 15.0483C4.02446 14.7899 3.65391 14.3469 3.21002 13.7194C2.73375 13.0493 2.3422 12.2722 2.03544 11.3863C1.70692 10.4295 1.54224 9.50287 1.54224 8.6058C1.54224 7.57821 1.76428 6.69194 2.20903 5.94924C2.55856 5.35268 3.02356 4.88209 3.60555 4.53663C4.18753 4.19117 4.81637 4.01512 5.49357 4.00386C5.86412 4.00386 6.35004 4.11848 6.95389 4.34374C7.55603 4.56976 7.94267 4.68437 8.11218 4.68437C8.23891 4.68437 8.66842 4.55035 9.39654 4.28316C10.0851 4.03538 10.6662 3.93278 11.1423 3.9732C12.4324 4.07731 13.4015 4.58585 14.0461 5.50203C12.8923 6.2011 12.3216 7.18022 12.333 8.43629C12.3434 9.41465 12.6983 10.2288 13.3959 10.8753C13.712 11.1753 14.065 11.4072 14.4578 11.5719C14.3726 11.8189 14.2827 12.0555 14.1871 12.2827ZM11.2284 0.640097C11.2284 1.40694 10.9483 2.12294 10.3899 2.78566C9.71598 3.5735 8.90088 4.02875 8.01697 3.95692C8.0057 3.86492 7.99917 3.76809 7.99917 3.66635C7.99917 2.93018 8.31965 2.14234 8.88876 1.49817C9.17289 1.17201 9.53426 0.900822 9.97247 0.684486C10.4097 0.471379 10.8234 0.353525 11.2124 0.333344C11.2237 0.435858 11.2284 0.538379 11.2284 0.640087V0.640097Z" fill="#FAFAFA"/>
</svg>
