<svg width="16" height="16" viewBox="0 0 16 16" fill="none" xmlns="http://www.w3.org/2000/svg">
<path fill-rule="evenodd" clip-rule="evenodd" d="M15.2 8.17044C15.2 7.63862 15.1523 7.12726 15.0636 6.63635H8V9.53749H12.0364C11.8625 10.475 11.3341 11.2693 10.5398 11.8011V13.6829H12.9636C14.3818 12.3773 15.2 10.4545 15.2 8.17044Z" fill="#4285F4"/>
<path fill-rule="evenodd" clip-rule="evenodd" d="M7.99988 15.4999C10.0249 15.4999 11.7226 14.8283 12.9635 13.6829L10.5397 11.801C9.86806 12.251 9.00897 12.5169 7.99988 12.5169C6.04647 12.5169 4.39306 11.1976 3.80329 9.4249H1.29761V11.3681C2.5317 13.8192 5.06806 15.4999 7.99988 15.4999Z" fill="#34A853"/>
<path fill-rule="evenodd" clip-rule="evenodd" d="M3.80341 9.42505C3.65341 8.97505 3.56818 8.49437 3.56818 8.00005C3.56818 7.50573 3.65341 7.02505 3.80341 6.57505V4.63187H1.29773C0.789773 5.64437 0.5 6.78982 0.5 8.00005C0.5 9.21028 0.789773 10.3557 1.29773 11.3682L3.80341 9.42505Z" fill="#FBBC05"/>
<path fill-rule="evenodd" clip-rule="evenodd" d="M7.99988 3.48295C9.10102 3.48295 10.0897 3.86136 10.8669 4.60455L13.0181 2.45341C11.7192 1.24318 10.0215 0.5 7.99988 0.5C5.06806 0.5 2.5317 2.18068 1.29761 4.63182L3.80329 6.575C4.39306 4.80227 6.04647 3.48295 7.99988 3.48295Z" fill="#EA4335"/>
</svg>
